<svg width="412" height="917" viewBox="0 0 412 917" fill="none" xmlns="http://www.w3.org/2000/svg">
<rect width="412" height="917" fill="white"/>
<g clip-path="url(#clip0_2_86)">
<path d="M19 90V88H37V90H19ZM19 85V83H37V85H19ZM19 80V78H37V80H19Z" fill="#221A15"/>
</g>
<path d="M368 84C368 75.1634 375.163 68 384 68V68C392.837 68 400 75.1634 400 84V84C400 92.8366 392.837 100 384 100V100C375.163 100 368 92.8366 368 84V84Z" fill="#8D4F28"/>
<path d="M384.206 79.1406L380.808 89H378.753L383.034 77.625H384.347L384.206 79.1406ZM387.05 89L383.644 79.1406L383.495 77.625H384.816L389.113 89H387.05ZM386.886 84.7812V86.3359H380.698V84.7812H386.886Z" fill="white"/>
<path d="M155.931 85.0264H157.993C157.886 86.0146 157.603 86.8991 157.145 87.6797C156.686 88.4603 156.038 89.0798 155.2 89.5381C154.362 89.9893 153.317 90.2148 152.063 90.2148C151.147 90.2148 150.312 90.043 149.561 89.6992C148.816 89.3555 148.175 88.8685 147.638 88.2383C147.101 87.6009 146.685 86.8382 146.392 85.9502C146.105 85.055 145.962 84.0596 145.962 82.9639V81.4062C145.962 80.3105 146.105 79.3187 146.392 78.4307C146.685 77.5355 147.104 76.7692 147.648 76.1318C148.2 75.4945 148.862 75.0039 149.636 74.6602C150.409 74.3164 151.279 74.1445 152.246 74.1445C153.428 74.1445 154.427 74.3665 155.243 74.8105C156.06 75.2546 156.693 75.8704 157.145 76.6582C157.603 77.4388 157.886 78.3447 157.993 79.376H155.931C155.83 78.6455 155.644 78.0189 155.372 77.4961C155.1 76.9661 154.713 76.5579 154.212 76.2715C153.711 75.985 153.055 75.8418 152.246 75.8418C151.551 75.8418 150.939 75.9743 150.409 76.2393C149.886 76.5042 149.446 76.8802 149.088 77.3672C148.737 77.8542 148.472 78.4378 148.293 79.1182C148.114 79.7985 148.024 80.554 148.024 81.3848V82.9639C148.024 83.7301 148.103 84.4499 148.261 85.123C148.425 85.7962 148.673 86.387 149.002 86.8955C149.331 87.404 149.75 87.805 150.259 88.0986C150.767 88.3851 151.369 88.5283 152.063 88.5283C152.944 88.5283 153.646 88.3887 154.169 88.1094C154.692 87.8301 155.086 87.429 155.351 86.9062C155.623 86.3835 155.816 85.7568 155.931 85.0264ZM167.371 88.0127V82.0293C167.371 81.571 167.278 81.1735 167.092 80.8369C166.913 80.4932 166.641 80.2282 166.275 80.042C165.91 79.8558 165.459 79.7627 164.922 79.7627C164.421 79.7627 163.98 79.8486 163.601 80.0205C163.228 80.1924 162.935 80.418 162.72 80.6973C162.512 80.9766 162.408 81.2773 162.408 81.5996H160.421C160.421 81.1842 160.528 80.7725 160.743 80.3643C160.958 79.9561 161.266 79.5872 161.667 79.2578C162.075 78.9212 162.562 78.6562 163.128 78.4629C163.701 78.2624 164.338 78.1621 165.04 78.1621C165.885 78.1621 166.63 78.3053 167.274 78.5918C167.926 78.8783 168.435 79.3115 168.8 79.8916C169.172 80.4645 169.358 81.1842 169.358 82.0508V87.4648C169.358 87.8516 169.391 88.2633 169.455 88.7002C169.527 89.137 169.631 89.513 169.767 89.8281V90H167.693C167.593 89.7708 167.514 89.4665 167.457 89.0869C167.4 88.7002 167.371 88.3421 167.371 88.0127ZM167.715 82.9531L167.736 84.3496H165.728C165.162 84.3496 164.657 84.3962 164.213 84.4893C163.769 84.5752 163.396 84.7077 163.096 84.8867C162.795 85.0658 162.566 85.2913 162.408 85.5635C162.251 85.8285 162.172 86.14 162.172 86.498C162.172 86.8633 162.254 87.1963 162.419 87.4971C162.584 87.7979 162.831 88.0378 163.16 88.2168C163.497 88.3887 163.909 88.4746 164.396 88.4746C165.004 88.4746 165.541 88.3457 166.007 88.0879C166.472 87.8301 166.841 87.515 167.113 87.1426C167.393 86.7702 167.543 86.4085 167.564 86.0576L168.413 87.0137C168.363 87.3145 168.227 87.6475 168.005 88.0127C167.783 88.3779 167.486 88.7288 167.113 89.0654C166.748 89.3949 166.311 89.6706 165.803 89.8926C165.301 90.1074 164.736 90.2148 164.105 90.2148C163.318 90.2148 162.627 90.0609 162.032 89.7529C161.445 89.445 160.987 89.0332 160.657 88.5176C160.335 87.9948 160.174 87.4111 160.174 86.7666C160.174 86.1436 160.296 85.5957 160.539 85.123C160.783 84.6432 161.133 84.2458 161.592 83.9307C162.05 83.6084 162.602 83.3649 163.246 83.2002C163.891 83.0355 164.61 82.9531 165.405 82.9531H167.715ZM179.252 86.917C179.252 86.6305 179.188 86.3656 179.059 86.1221C178.937 85.8714 178.683 85.6458 178.296 85.4453C177.916 85.2376 177.343 85.0586 176.577 84.9082C175.933 84.7721 175.349 84.611 174.826 84.4248C174.311 84.2386 173.87 84.013 173.505 83.748C173.147 83.4831 172.871 83.1715 172.678 82.8135C172.484 82.4554 172.388 82.0365 172.388 81.5566C172.388 81.0983 172.488 80.665 172.688 80.2568C172.896 79.8486 173.186 79.487 173.559 79.1719C173.938 78.8568 174.393 78.6097 174.923 78.4307C175.453 78.2516 176.044 78.1621 176.695 78.1621C177.626 78.1621 178.421 78.3268 179.08 78.6562C179.739 78.9857 180.244 79.4261 180.595 79.9775C180.946 80.5218 181.121 81.127 181.121 81.793H179.134C179.134 81.4707 179.037 81.1592 178.844 80.8584C178.658 80.5505 178.382 80.2962 178.017 80.0957C177.659 79.8952 177.218 79.7949 176.695 79.7949C176.144 79.7949 175.696 79.8809 175.353 80.0527C175.016 80.2174 174.769 80.4287 174.611 80.6865C174.461 80.9443 174.386 81.2165 174.386 81.5029C174.386 81.7178 174.422 81.9111 174.493 82.083C174.572 82.2477 174.708 82.4017 174.901 82.5449C175.095 82.681 175.367 82.8099 175.718 82.9316C176.069 83.0534 176.516 83.1751 177.061 83.2969C178.013 83.5117 178.797 83.7695 179.413 84.0703C180.029 84.3711 180.487 84.7399 180.788 85.1768C181.089 85.6136 181.239 86.1436 181.239 86.7666C181.239 87.2751 181.132 87.7406 180.917 88.1631C180.709 88.5856 180.405 88.9508 180.004 89.2588C179.61 89.5596 179.137 89.7959 178.586 89.9678C178.042 90.1325 177.429 90.2148 176.749 90.2148C175.725 90.2148 174.858 90.0322 174.149 89.667C173.44 89.3018 172.903 88.8291 172.538 88.249C172.173 87.6689 171.99 87.0566 171.99 86.4121H173.988C174.017 86.9564 174.174 87.3896 174.461 87.7119C174.747 88.027 175.098 88.2526 175.514 88.3887C175.929 88.5176 176.341 88.582 176.749 88.582C177.293 88.582 177.748 88.5104 178.113 88.3672C178.486 88.224 178.769 88.027 178.962 87.7764C179.155 87.5257 179.252 87.2393 179.252 86.917ZM185.837 73.5V90H183.85V73.5H185.837ZM185.364 83.748L184.537 83.7158C184.544 82.9209 184.662 82.1868 184.892 81.5137C185.121 80.8333 185.443 80.2425 185.858 79.7412C186.274 79.2399 186.768 78.8532 187.341 78.5811C187.921 78.3018 188.562 78.1621 189.264 78.1621C189.837 78.1621 190.352 78.2409 190.811 78.3984C191.269 78.5488 191.659 78.7923 191.981 79.1289C192.311 79.4655 192.562 79.9023 192.733 80.4395C192.905 80.9694 192.991 81.6175 192.991 82.3838V90H190.993V82.3623C190.993 81.7536 190.904 81.2666 190.725 80.9014C190.546 80.529 190.284 80.2604 189.94 80.0957C189.597 79.9238 189.174 79.8379 188.673 79.8379C188.179 79.8379 187.728 79.9417 187.319 80.1494C186.918 80.3571 186.571 80.6436 186.277 81.0088C185.991 81.374 185.765 81.793 185.601 82.2656C185.443 82.7311 185.364 83.2253 185.364 83.748ZM202.047 74.3594V90H200.006V74.3594H202.047ZM207.074 74.3594V76.0566H194.989V74.3594H207.074ZM210.265 80.2031V90H208.277V78.377H210.211L210.265 80.2031ZM213.896 78.3125L213.885 80.1602C213.72 80.1243 213.562 80.1029 213.412 80.0957C213.269 80.0814 213.104 80.0742 212.918 80.0742C212.46 80.0742 212.055 80.1458 211.704 80.2891C211.353 80.4323 211.056 80.6328 210.812 80.8906C210.569 81.1484 210.376 81.4564 210.232 81.8145C210.096 82.1654 210.007 82.5521 209.964 82.9746L209.405 83.2969C209.405 82.5951 209.473 81.9362 209.609 81.3203C209.753 80.7044 209.971 80.1602 210.265 79.6875C210.558 79.2077 210.931 78.8353 211.382 78.5703C211.84 78.2982 212.384 78.1621 213.015 78.1621C213.158 78.1621 213.323 78.18 213.509 78.2158C213.695 78.2445 213.824 78.2767 213.896 78.3125ZM222.156 88.0127V82.0293C222.156 81.571 222.063 81.1735 221.877 80.8369C221.698 80.4932 221.426 80.2282 221.061 80.042C220.695 79.8558 220.244 79.7627 219.707 79.7627C219.206 79.7627 218.765 79.8486 218.386 80.0205C218.013 80.1924 217.72 80.418 217.505 80.6973C217.297 80.9766 217.193 81.2773 217.193 81.5996H215.206C215.206 81.1842 215.313 80.7725 215.528 80.3643C215.743 79.9561 216.051 79.5872 216.452 79.2578C216.86 78.9212 217.347 78.6562 217.913 78.4629C218.486 78.2624 219.123 78.1621 219.825 78.1621C220.67 78.1621 221.415 78.3053 222.06 78.5918C222.711 78.8783 223.22 79.3115 223.585 79.8916C223.957 80.4645 224.144 81.1842 224.144 82.0508V87.4648C224.144 87.8516 224.176 88.2633 224.24 88.7002C224.312 89.137 224.416 89.513 224.552 89.8281V90H222.479C222.378 89.7708 222.299 89.4665 222.242 89.0869C222.185 88.7002 222.156 88.3421 222.156 88.0127ZM222.5 82.9531L222.521 84.3496H220.513C219.947 84.3496 219.442 84.3962 218.998 84.4893C218.554 84.5752 218.182 84.7077 217.881 84.8867C217.58 85.0658 217.351 85.2913 217.193 85.5635C217.036 85.8285 216.957 86.14 216.957 86.498C216.957 86.8633 217.039 87.1963 217.204 87.4971C217.369 87.7979 217.616 88.0378 217.945 88.2168C218.282 88.3887 218.694 88.4746 219.181 88.4746C219.789 88.4746 220.326 88.3457 220.792 88.0879C221.257 87.8301 221.626 87.515 221.898 87.1426C222.178 86.7702 222.328 86.4085 222.35 86.0576L223.198 87.0137C223.148 87.3145 223.012 87.6475 222.79 88.0127C222.568 88.3779 222.271 88.7288 221.898 89.0654C221.533 89.3949 221.096 89.6706 220.588 89.8926C220.087 90.1074 219.521 90.2148 218.891 90.2148C218.103 90.2148 217.412 90.0609 216.817 89.7529C216.23 89.445 215.772 89.0332 215.442 88.5176C215.12 87.9948 214.959 87.4111 214.959 86.7666C214.959 86.1436 215.081 85.5957 215.324 85.123C215.568 84.6432 215.919 84.2458 216.377 83.9307C216.835 83.6084 217.387 83.3649 218.031 83.2002C218.676 83.0355 219.396 82.9531 220.19 82.9531H222.5ZM231.921 88.582C232.394 88.582 232.83 88.4854 233.231 88.292C233.632 88.0986 233.962 87.8337 234.22 87.4971C234.478 87.1533 234.624 86.763 234.66 86.3262H236.551C236.515 87.0137 236.282 87.6546 235.853 88.249C235.43 88.8363 234.875 89.3125 234.188 89.6777C233.5 90.0358 232.744 90.2148 231.921 90.2148C231.047 90.2148 230.285 90.0609 229.633 89.7529C228.988 89.445 228.451 89.0225 228.021 88.4854C227.599 87.9482 227.28 87.3324 227.065 86.6377C226.858 85.9359 226.754 85.1947 226.754 84.4141V83.9629C226.754 83.1823 226.858 82.4447 227.065 81.75C227.28 81.0482 227.599 80.4287 228.021 79.8916C228.451 79.3545 228.988 78.932 229.633 78.624C230.285 78.3161 231.047 78.1621 231.921 78.1621C232.83 78.1621 233.625 78.3483 234.306 78.7207C234.986 79.0859 235.52 79.5872 235.906 80.2246C236.3 80.8548 236.515 81.571 236.551 82.373H234.66C234.624 81.8932 234.488 81.46 234.252 81.0732C234.023 80.6865 233.708 80.3786 233.307 80.1494C232.913 79.9131 232.451 79.7949 231.921 79.7949C231.312 79.7949 230.8 79.9167 230.385 80.1602C229.977 80.3965 229.651 80.7188 229.407 81.127C229.171 81.528 228.999 81.9756 228.892 82.4697C228.791 82.9567 228.741 83.4544 228.741 83.9629V84.4141C228.741 84.9225 228.791 85.4238 228.892 85.918C228.992 86.4121 229.16 86.8597 229.396 87.2607C229.64 87.6618 229.966 87.984 230.374 88.2275C230.789 88.4639 231.305 88.582 231.921 88.582ZM240.783 73.5V90H238.785V73.5H240.783ZM247.884 78.377L242.813 83.8018L239.978 86.7451L239.816 84.6289L241.847 82.2012L245.456 78.377H247.884ZM246.068 90L241.922 84.457L242.953 82.6846L248.41 90H246.068ZM254.544 90.2148C253.735 90.2148 253.001 90.0788 252.342 89.8066C251.69 89.5273 251.128 89.137 250.655 88.6357C250.19 88.1344 249.832 87.54 249.581 86.8525C249.33 86.165 249.205 85.4131 249.205 84.5967V84.1455C249.205 83.2002 249.345 82.3587 249.624 81.6211C249.903 80.8763 250.283 80.2461 250.763 79.7305C251.243 79.2148 251.787 78.8245 252.396 78.5596C253.004 78.2946 253.634 78.1621 254.286 78.1621C255.117 78.1621 255.833 78.3053 256.435 78.5918C257.043 78.8783 257.541 79.2793 257.928 79.7949C258.314 80.3034 258.601 80.9049 258.787 81.5996C258.973 82.2871 259.066 83.0391 259.066 83.8555V84.7471H250.387V83.125H257.079V82.9746C257.05 82.459 256.943 81.9577 256.757 81.4707C256.578 80.9837 256.291 80.5827 255.897 80.2676C255.504 79.9525 254.966 79.7949 254.286 79.7949C253.835 79.7949 253.42 79.8916 253.04 80.085C252.66 80.2712 252.335 80.5505 252.062 80.9229C251.79 81.2952 251.579 81.75 251.429 82.2871C251.278 82.8242 251.203 83.4437 251.203 84.1455V84.5967C251.203 85.1481 251.278 85.6673 251.429 86.1543C251.586 86.6341 251.812 87.0566 252.105 87.4219C252.406 87.7871 252.768 88.0736 253.19 88.2812C253.62 88.4889 254.107 88.5928 254.651 88.5928C255.353 88.5928 255.948 88.4495 256.435 88.1631C256.922 87.8766 257.348 87.4935 257.713 87.0137L258.916 87.9697C258.665 88.3493 258.347 88.7109 257.96 89.0547C257.573 89.3984 257.097 89.6777 256.531 89.8926C255.973 90.1074 255.31 90.2148 254.544 90.2148ZM263.374 80.2031V90H261.387V78.377H263.32L263.374 80.2031ZM267.005 78.3125L266.994 80.1602C266.829 80.1243 266.672 80.1029 266.521 80.0957C266.378 80.0814 266.214 80.0742 266.027 80.0742C265.569 80.0742 265.164 80.1458 264.813 80.2891C264.463 80.4323 264.165 80.6328 263.922 80.8906C263.678 81.1484 263.485 81.4564 263.342 81.8145C263.206 82.1654 263.116 82.5521 263.073 82.9746L262.515 83.2969C262.515 82.5951 262.583 81.9362 262.719 81.3203C262.862 80.7044 263.08 80.1602 263.374 79.6875C263.668 79.2077 264.04 78.8353 264.491 78.5703C264.95 78.2982 265.494 78.1621 266.124 78.1621C266.267 78.1621 266.432 78.18 266.618 78.2158C266.804 78.2445 266.933 78.2767 267.005 78.3125Z" fill="#221A15"/>
<rect width="412" height="777" transform="translate(0 116)" fill="#FFF8F5"/>
<path d="M34.5117 150.094V153.592H20.9238V150.094H34.5117ZM22.0137 139.406V165H17.6016V139.406H22.0137ZM37.9043 139.406V165H33.5098V139.406H37.9043ZM51.123 165.352C49.7168 165.352 48.4453 165.123 47.3086 164.666C46.1836 164.197 45.2227 163.547 44.4258 162.715C43.6406 161.883 43.0371 160.904 42.6152 159.779C42.1934 158.654 41.9824 157.441 41.9824 156.141V155.438C41.9824 153.949 42.1992 152.602 42.6328 151.395C43.0664 150.188 43.6699 149.156 44.4434 148.301C45.2168 147.434 46.1309 146.771 47.1855 146.314C48.2402 145.857 49.3828 145.629 50.6133 145.629C51.9727 145.629 53.1621 145.857 54.1816 146.314C55.2012 146.771 56.0449 147.416 56.7129 148.248C57.3926 149.068 57.8965 150.047 58.2246 151.184C58.5645 152.32 58.7344 153.574 58.7344 154.945V156.756H44.0391V153.715H54.5508V153.381C54.5273 152.619 54.375 151.904 54.0938 151.236C53.8242 150.568 53.4082 150.029 52.8457 149.619C52.2832 149.209 51.5332 149.004 50.5957 149.004C49.8926 149.004 49.2656 149.156 48.7148 149.461C48.1758 149.754 47.7246 150.182 47.3613 150.744C46.998 151.307 46.7168 151.986 46.5176 152.783C46.3301 153.568 46.2363 154.453 46.2363 155.438V156.141C46.2363 156.973 46.3477 157.746 46.5703 158.461C46.8047 159.164 47.1445 159.779 47.5898 160.307C48.0352 160.834 48.5742 161.25 49.207 161.555C49.8398 161.848 50.5605 161.994 51.3691 161.994C52.3887 161.994 53.2969 161.789 54.0938 161.379C54.8906 160.969 55.582 160.389 56.168 159.639L58.4004 161.801C57.9902 162.398 57.457 162.973 56.8008 163.523C56.1445 164.062 55.3418 164.502 54.3926 164.842C53.4551 165.182 52.3652 165.352 51.123 165.352ZM66.5742 138V165H62.3203V138H66.5742ZM75.75 138V165H71.4961V138H75.75ZM79.582 155.701V155.297C79.582 153.926 79.7812 152.654 80.1797 151.482C80.5781 150.299 81.1523 149.273 81.9023 148.406C82.6641 147.527 83.5898 146.848 84.6797 146.367C85.7812 145.875 87.0234 145.629 88.4062 145.629C89.8008 145.629 91.043 145.875 92.1328 146.367C93.2344 146.848 94.166 147.527 94.9277 148.406C95.6895 149.273 96.2695 150.299 96.668 151.482C97.0664 152.654 97.2656 153.926 97.2656 155.297V155.701C97.2656 157.072 97.0664 158.344 96.668 159.516C96.2695 160.688 95.6895 161.713 94.9277 162.592C94.166 163.459 93.2402 164.139 92.1504 164.631C91.0605 165.111 89.8242 165.352 88.4414 165.352C87.0469 165.352 85.7988 165.111 84.6973 164.631C83.6074 164.139 82.6816 163.459 81.9199 162.592C81.1582 161.713 80.5781 160.688 80.1797 159.516C79.7812 158.344 79.582 157.072 79.582 155.701ZM83.8184 155.297V155.701C83.8184 156.557 83.9062 157.365 84.082 158.127C84.2578 158.889 84.5332 159.557 84.9082 160.131C85.2832 160.705 85.7637 161.156 86.3496 161.484C86.9355 161.812 87.6328 161.977 88.4414 161.977C89.2266 161.977 89.9062 161.812 90.4805 161.484C91.0664 161.156 91.5469 160.705 91.9219 160.131C92.2969 159.557 92.5723 158.889 92.748 158.127C92.9355 157.365 93.0293 156.557 93.0293 155.701V155.297C93.0293 154.453 92.9355 153.656 92.748 152.906C92.5723 152.145 92.291 151.471 91.9043 150.885C91.5293 150.299 91.0488 149.842 90.4629 149.514C89.8887 149.174 89.2031 149.004 88.4062 149.004C87.6094 149.004 86.918 149.174 86.332 149.514C85.7578 149.842 85.2832 150.299 84.9082 150.885C84.5332 151.471 84.2578 152.145 84.082 152.906C83.9062 153.656 83.8184 154.453 83.8184 155.297ZM104.789 160.922L104.771 163.945C104.771 165.141 104.473 166.371 103.875 167.637C103.277 168.902 102.486 169.945 101.502 170.766L99.2344 169.447C99.5625 168.92 99.8613 168.387 100.131 167.848C100.4 167.309 100.617 166.734 100.781 166.125C100.945 165.516 101.027 164.842 101.027 164.104V160.922H104.789ZM125.689 165H120.223L120.258 161.502H125.689C127.271 161.502 128.596 161.156 129.662 160.465C130.74 159.773 131.549 158.783 132.088 157.494C132.639 156.205 132.914 154.67 132.914 152.889V151.5C132.914 150.117 132.756 148.893 132.439 147.826C132.135 146.76 131.678 145.863 131.068 145.137C130.471 144.41 129.732 143.859 128.854 143.484C127.986 143.109 126.984 142.922 125.848 142.922H120.117V139.406H125.848C127.547 139.406 129.1 139.693 130.506 140.268C131.912 140.83 133.125 141.645 134.145 142.711C135.176 143.777 135.967 145.055 136.518 146.543C137.068 148.031 137.344 149.695 137.344 151.535V152.889C137.344 154.729 137.068 156.393 136.518 157.881C135.967 159.369 135.176 160.646 134.145 161.713C133.113 162.768 131.883 163.582 130.453 164.156C129.035 164.719 127.447 165 125.689 165ZM122.666 139.406V165H118.254V139.406H122.666ZM152.074 161.186V152.115C152.074 151.436 151.951 150.85 151.705 150.357C151.459 149.865 151.084 149.484 150.58 149.215C150.088 148.945 149.467 148.811 148.717 148.811C148.025 148.811 147.428 148.928 146.924 149.162C146.42 149.396 146.027 149.713 145.746 150.111C145.465 150.51 145.324 150.961 145.324 151.465H141.105C141.105 150.715 141.287 149.988 141.65 149.285C142.014 148.582 142.541 147.955 143.232 147.404C143.924 146.854 144.75 146.42 145.711 146.104C146.672 145.787 147.75 145.629 148.945 145.629C150.375 145.629 151.641 145.869 152.742 146.35C153.855 146.83 154.729 147.557 155.361 148.529C156.006 149.49 156.328 150.697 156.328 152.15V160.605C156.328 161.473 156.387 162.252 156.504 162.943C156.633 163.623 156.814 164.215 157.049 164.719V165H152.707C152.508 164.543 152.35 163.963 152.232 163.26C152.127 162.545 152.074 161.854 152.074 161.186ZM152.689 153.434L152.725 156.053H149.684C148.898 156.053 148.207 156.129 147.609 156.281C147.012 156.422 146.514 156.633 146.115 156.914C145.717 157.195 145.418 157.535 145.219 157.934C145.02 158.332 144.92 158.783 144.92 159.287C144.92 159.791 145.037 160.254 145.271 160.676C145.506 161.086 145.846 161.408 146.291 161.643C146.748 161.877 147.299 161.994 147.943 161.994C148.811 161.994 149.566 161.818 150.211 161.467C150.867 161.104 151.383 160.664 151.758 160.148C152.133 159.621 152.332 159.123 152.355 158.654L153.727 160.535C153.586 161.016 153.346 161.531 153.006 162.082C152.666 162.633 152.221 163.16 151.67 163.664C151.131 164.156 150.48 164.561 149.719 164.877C148.969 165.193 148.102 165.352 147.117 165.352C145.875 165.352 144.768 165.105 143.795 164.613C142.822 164.109 142.061 163.436 141.51 162.592C140.959 161.736 140.684 160.77 140.684 159.691C140.684 158.684 140.871 157.793 141.246 157.02C141.633 156.234 142.195 155.578 142.934 155.051C143.684 154.523 144.598 154.125 145.676 153.855C146.754 153.574 147.984 153.434 149.367 153.434H152.689ZM165.926 160.781L170.32 145.98H173.027L172.289 150.41L167.859 165H165.434L165.926 160.781ZM163.342 145.98L166.77 160.852L167.051 165H164.344L159.193 145.98H163.342ZM177.141 160.676L180.463 145.98H184.594L179.461 165H176.754L177.141 160.676ZM173.484 145.98L177.826 160.605L178.371 165H175.945L171.463 150.393L170.725 145.98H173.484ZM192.012 145.98V165H187.758V145.98H192.012ZM187.477 140.988C187.477 140.344 187.688 139.811 188.109 139.389C188.543 138.955 189.141 138.738 189.902 138.738C190.652 138.738 191.244 138.955 191.678 139.389C192.111 139.811 192.328 140.344 192.328 140.988C192.328 141.621 192.111 142.148 191.678 142.57C191.244 142.992 190.652 143.203 189.902 143.203C189.141 143.203 188.543 142.992 188.109 142.57C187.688 142.148 187.477 141.621 187.477 140.988ZM208.254 161.062V138H212.508V165H208.658L208.254 161.062ZM195.879 155.701V155.332C195.879 153.891 196.049 152.578 196.389 151.395C196.729 150.199 197.221 149.174 197.865 148.318C198.51 147.451 199.295 146.789 200.221 146.332C201.146 145.863 202.189 145.629 203.35 145.629C204.498 145.629 205.506 145.852 206.373 146.297C207.24 146.742 207.979 147.381 208.588 148.213C209.197 149.033 209.684 150.018 210.047 151.166C210.41 152.303 210.668 153.568 210.82 154.963V156.141C210.668 157.5 210.41 158.742 210.047 159.867C209.684 160.992 209.197 161.965 208.588 162.785C207.979 163.605 207.234 164.238 206.355 164.684C205.488 165.129 204.475 165.352 203.314 165.352C202.166 165.352 201.129 165.111 200.203 164.631C199.289 164.15 198.51 163.477 197.865 162.609C197.221 161.742 196.729 160.723 196.389 159.551C196.049 158.367 195.879 157.084 195.879 155.701ZM200.115 155.332V155.701C200.115 156.568 200.191 157.377 200.344 158.127C200.508 158.877 200.76 159.539 201.1 160.113C201.439 160.676 201.879 161.121 202.418 161.449C202.969 161.766 203.625 161.924 204.387 161.924C205.348 161.924 206.139 161.713 206.76 161.291C207.381 160.869 207.867 160.301 208.219 159.586C208.582 158.859 208.828 158.051 208.957 157.16V153.979C208.887 153.287 208.74 152.643 208.518 152.045C208.307 151.447 208.02 150.926 207.656 150.48C207.293 150.023 206.842 149.672 206.303 149.426C205.775 149.168 205.148 149.039 204.422 149.039C203.648 149.039 202.992 149.203 202.453 149.531C201.914 149.859 201.469 150.311 201.117 150.885C200.777 151.459 200.525 152.127 200.361 152.889C200.197 153.65 200.115 154.465 200.115 155.332ZM221.824 139.406L221.402 157.459H217.781L217.342 139.406H221.824ZM217.219 162.996C217.219 162.352 217.43 161.812 217.852 161.379C218.285 160.934 218.883 160.711 219.645 160.711C220.395 160.711 220.986 160.934 221.42 161.379C221.854 161.812 222.07 162.352 222.07 162.996C222.07 163.617 221.854 164.15 221.42 164.596C220.986 165.029 220.395 165.246 219.645 165.246C218.883 165.246 218.285 165.029 217.852 164.596C217.43 164.15 217.219 163.617 217.219 162.996Z" fill="#221A15"/>
<defs>
<clipPath id="clip0_2_86">
<rect x="8" y="64" width="40" height="40" rx="20" fill="white"/>
</clipPath>
</defs>
</svg>
