<svg width="1440" height="1024" viewBox="0 0 1440 1024" fill="none" xmlns="http://www.w3.org/2000/svg">
<g clip-path="url(#clip0_6_4542)">
<rect width="1440" height="1024" fill="white"/>
<rect width="1440" height="1024" fill="#FFF8F5"/>
<rect x="642" y="368" width="156" height="156" rx="78" fill="#FFAE7F"/>
<path fill-rule="evenodd" clip-rule="evenodd" d="M743.401 430.4C743.401 443.323 732.924 453.8 720.001 453.8C707.077 453.8 696.601 443.323 696.601 430.4C696.601 417.477 707.077 407 720.001 407C732.924 407 743.401 417.477 743.401 430.4ZM735.601 430.4C735.601 439.016 728.617 446 720.001 446C711.385 446 704.401 439.016 704.401 430.4C704.401 421.784 711.385 414.8 720.001 414.8C728.617 414.8 735.601 421.784 735.601 430.4Z" fill="#673C22"/>
<path d="M720.001 465.5C694.751 465.5 673.237 480.431 665.042 501.349C667.038 503.331 669.141 505.207 671.342 506.965C677.444 487.76 696.588 473.3 720.001 473.3C743.414 473.3 762.558 487.76 768.66 506.965C770.861 505.207 772.964 503.331 774.96 501.349C766.765 480.431 745.251 465.5 720.001 465.5Z" fill="#673C22"/>
<path d="M636.275 559.668H640.67C640.529 561.344 640.061 562.838 639.264 564.15C638.467 565.451 637.348 566.477 635.906 567.227C634.465 567.977 632.713 568.352 630.65 568.352C629.068 568.352 627.645 568.07 626.379 567.508C625.113 566.934 624.029 566.125 623.127 565.082C622.225 564.027 621.533 562.756 621.053 561.268C620.584 559.779 620.35 558.115 620.35 556.275V554.148C620.35 552.309 620.59 550.645 621.07 549.156C621.562 547.668 622.266 546.396 623.18 545.342C624.094 544.275 625.189 543.461 626.467 542.898C627.756 542.336 629.203 542.055 630.809 542.055C632.848 542.055 634.57 542.43 635.977 543.18C637.383 543.93 638.473 544.967 639.246 546.291C640.031 547.615 640.512 549.133 640.688 550.844H636.293C636.176 549.742 635.918 548.799 635.52 548.014C635.133 547.229 634.559 546.631 633.797 546.221C633.035 545.799 632.039 545.588 630.809 545.588C629.801 545.588 628.922 545.775 628.172 546.15C627.422 546.525 626.795 547.076 626.291 547.803C625.787 548.529 625.406 549.426 625.148 550.492C624.902 551.547 624.779 552.754 624.779 554.113V556.275C624.779 557.564 624.891 558.736 625.113 559.791C625.348 560.834 625.699 561.73 626.168 562.48C626.648 563.23 627.258 563.811 627.996 564.221C628.734 564.631 629.619 564.836 630.65 564.836C631.904 564.836 632.918 564.637 633.691 564.238C634.477 563.84 635.068 563.26 635.467 562.498C635.877 561.725 636.146 560.781 636.275 559.668ZM654.979 564.186V555.115C654.979 554.436 654.855 553.85 654.609 553.357C654.363 552.865 653.988 552.484 653.484 552.215C652.992 551.945 652.371 551.811 651.621 551.811C650.93 551.811 650.332 551.928 649.828 552.162C649.324 552.396 648.932 552.713 648.65 553.111C648.369 553.51 648.229 553.961 648.229 554.465H644.01C644.01 553.715 644.191 552.988 644.555 552.285C644.918 551.582 645.445 550.955 646.137 550.404C646.828 549.854 647.654 549.42 648.615 549.104C649.576 548.787 650.654 548.629 651.85 548.629C653.279 548.629 654.545 548.869 655.646 549.35C656.76 549.83 657.633 550.557 658.266 551.529C658.91 552.49 659.232 553.697 659.232 555.15V563.605C659.232 564.473 659.291 565.252 659.408 565.943C659.537 566.623 659.719 567.215 659.953 567.719V568H655.611C655.412 567.543 655.254 566.963 655.137 566.26C655.031 565.545 654.979 564.854 654.979 564.186ZM655.594 556.434L655.629 559.053H652.588C651.803 559.053 651.111 559.129 650.514 559.281C649.916 559.422 649.418 559.633 649.02 559.914C648.621 560.195 648.322 560.535 648.123 560.934C647.924 561.332 647.824 561.783 647.824 562.287C647.824 562.791 647.941 563.254 648.176 563.676C648.41 564.086 648.75 564.408 649.195 564.643C649.652 564.877 650.203 564.994 650.848 564.994C651.715 564.994 652.471 564.818 653.115 564.467C653.771 564.104 654.287 563.664 654.662 563.148C655.037 562.621 655.236 562.123 655.26 561.654L656.631 563.535C656.49 564.016 656.25 564.531 655.91 565.082C655.57 565.633 655.125 566.16 654.574 566.664C654.035 567.156 653.385 567.561 652.623 567.877C651.873 568.193 651.006 568.352 650.021 568.352C648.779 568.352 647.672 568.105 646.699 567.613C645.727 567.109 644.965 566.436 644.414 565.592C643.863 564.736 643.588 563.77 643.588 562.691C643.588 561.684 643.775 560.793 644.15 560.02C644.537 559.234 645.1 558.578 645.838 558.051C646.588 557.523 647.502 557.125 648.58 556.855C649.658 556.574 650.889 556.434 652.271 556.434H655.594ZM674.332 562.85C674.332 562.428 674.227 562.047 674.016 561.707C673.805 561.355 673.4 561.039 672.803 560.758C672.217 560.477 671.35 560.219 670.201 559.984C669.193 559.762 668.268 559.498 667.424 559.193C666.592 558.877 665.877 558.496 665.279 558.051C664.682 557.605 664.219 557.078 663.891 556.469C663.562 555.859 663.398 555.156 663.398 554.359C663.398 553.586 663.568 552.854 663.908 552.162C664.248 551.471 664.734 550.861 665.367 550.334C666 549.807 666.768 549.391 667.67 549.086C668.584 548.781 669.604 548.629 670.729 548.629C672.322 548.629 673.688 548.898 674.824 549.438C675.973 549.965 676.852 550.686 677.461 551.6C678.07 552.502 678.375 553.521 678.375 554.658H674.139C674.139 554.154 674.01 553.686 673.752 553.252C673.506 552.807 673.131 552.449 672.627 552.18C672.123 551.898 671.49 551.758 670.729 551.758C670.002 551.758 669.398 551.875 668.918 552.109C668.449 552.332 668.098 552.625 667.863 552.988C667.641 553.352 667.529 553.75 667.529 554.184C667.529 554.5 667.588 554.787 667.705 555.045C667.834 555.291 668.045 555.52 668.338 555.73C668.631 555.93 669.029 556.117 669.533 556.293C670.049 556.469 670.693 556.639 671.467 556.803C672.92 557.107 674.168 557.5 675.211 557.98C676.266 558.449 677.074 559.059 677.637 559.809C678.199 560.547 678.48 561.484 678.48 562.621C678.48 563.465 678.299 564.238 677.936 564.941C677.584 565.633 677.068 566.236 676.389 566.752C675.709 567.256 674.895 567.648 673.945 567.93C673.008 568.211 671.953 568.352 670.781 568.352C669.059 568.352 667.6 568.047 666.404 567.438C665.209 566.816 664.301 566.025 663.68 565.064C663.07 564.092 662.766 563.084 662.766 562.041H666.861C666.908 562.826 667.125 563.453 667.512 563.922C667.91 564.379 668.402 564.713 668.988 564.924C669.586 565.123 670.201 565.223 670.834 565.223C671.596 565.223 672.234 565.123 672.75 564.924C673.266 564.713 673.658 564.432 673.928 564.08C674.197 563.717 674.332 563.307 674.332 562.85ZM686.373 541V568H682.154V541H686.373ZM685.635 557.787L684.264 557.77C684.275 556.457 684.457 555.244 684.809 554.131C685.172 553.018 685.676 552.051 686.32 551.23C686.977 550.398 687.762 549.76 688.676 549.314C689.59 548.857 690.604 548.629 691.717 548.629C692.654 548.629 693.498 548.758 694.248 549.016C695.01 549.273 695.666 549.689 696.217 550.264C696.768 550.826 697.184 551.564 697.465 552.479C697.758 553.381 697.904 554.482 697.904 555.783V568H693.65V555.748C693.65 554.834 693.516 554.107 693.246 553.568C692.988 553.029 692.607 552.643 692.104 552.408C691.6 552.162 690.984 552.039 690.258 552.039C689.496 552.039 688.822 552.191 688.236 552.496C687.662 552.801 687.182 553.217 686.795 553.744C686.408 554.271 686.115 554.881 685.916 555.572C685.729 556.264 685.635 557.002 685.635 557.787ZM713.145 542.406V568H708.768V542.406H713.145ZM721.178 542.406V545.922H700.805V542.406H721.178ZM727.119 552.602V568H722.883V548.98H726.926L727.119 552.602ZM732.938 548.857L732.902 552.795C732.645 552.748 732.363 552.713 732.059 552.689C731.766 552.666 731.473 552.654 731.18 552.654C730.453 552.654 729.814 552.76 729.264 552.971C728.713 553.17 728.25 553.463 727.875 553.85C727.512 554.225 727.23 554.682 727.031 555.221C726.832 555.76 726.715 556.363 726.68 557.031L725.713 557.102C725.713 555.906 725.83 554.799 726.064 553.779C726.299 552.76 726.65 551.863 727.119 551.09C727.6 550.316 728.197 549.713 728.912 549.279C729.639 548.846 730.477 548.629 731.426 548.629C731.684 548.629 731.959 548.652 732.252 548.699C732.557 548.746 732.785 548.799 732.938 548.857ZM745.682 564.186V555.115C745.682 554.436 745.559 553.85 745.312 553.357C745.066 552.865 744.691 552.484 744.188 552.215C743.695 551.945 743.074 551.811 742.324 551.811C741.633 551.811 741.035 551.928 740.531 552.162C740.027 552.396 739.635 552.713 739.354 553.111C739.072 553.51 738.932 553.961 738.932 554.465H734.713C734.713 553.715 734.895 552.988 735.258 552.285C735.621 551.582 736.148 550.955 736.84 550.404C737.531 549.854 738.357 549.42 739.318 549.104C740.279 548.787 741.357 548.629 742.553 548.629C743.982 548.629 745.248 548.869 746.35 549.35C747.463 549.83 748.336 550.557 748.969 551.529C749.613 552.49 749.936 553.697 749.936 555.15V563.605C749.936 564.473 749.994 565.252 750.111 565.943C750.24 566.623 750.422 567.215 750.656 567.719V568H746.314C746.115 567.543 745.957 566.963 745.84 566.26C745.734 565.545 745.682 564.854 745.682 564.186ZM746.297 556.434L746.332 559.053H743.291C742.506 559.053 741.814 559.129 741.217 559.281C740.619 559.422 740.121 559.633 739.723 559.914C739.324 560.195 739.025 560.535 738.826 560.934C738.627 561.332 738.527 561.783 738.527 562.287C738.527 562.791 738.645 563.254 738.879 563.676C739.113 564.086 739.453 564.408 739.898 564.643C740.355 564.877 740.906 564.994 741.551 564.994C742.418 564.994 743.174 564.818 743.818 564.467C744.475 564.104 744.99 563.664 745.365 563.148C745.74 562.621 745.939 562.123 745.963 561.654L747.334 563.535C747.193 564.016 746.953 564.531 746.613 565.082C746.273 565.633 745.828 566.16 745.277 566.664C744.738 567.156 744.088 567.561 743.326 567.877C742.576 568.193 741.709 568.352 740.725 568.352C739.482 568.352 738.375 568.105 737.402 567.613C736.43 567.109 735.668 566.436 735.117 565.592C734.566 564.736 734.291 563.77 734.291 562.691C734.291 561.684 734.479 560.793 734.854 560.02C735.24 559.234 735.803 558.578 736.541 558.051C737.291 557.523 738.205 557.125 739.283 556.855C740.361 556.574 741.592 556.434 742.975 556.434H746.297ZM762.135 564.977C762.826 564.977 763.447 564.842 763.998 564.572C764.561 564.291 765.012 563.904 765.352 563.412C765.703 562.92 765.896 562.352 765.932 561.707H769.922C769.898 562.938 769.535 564.057 768.832 565.064C768.129 566.072 767.197 566.875 766.037 567.473C764.877 568.059 763.594 568.352 762.188 568.352C760.734 568.352 759.469 568.105 758.391 567.613C757.312 567.109 756.416 566.418 755.701 565.539C754.986 564.66 754.447 563.646 754.084 562.498C753.732 561.35 753.557 560.119 753.557 558.807V558.191C753.557 556.879 753.732 555.648 754.084 554.5C754.447 553.34 754.986 552.32 755.701 551.441C756.416 550.562 757.312 549.877 758.391 549.385C759.469 548.881 760.729 548.629 762.17 548.629C763.693 548.629 765.029 548.934 766.178 549.543C767.326 550.141 768.229 550.979 768.885 552.057C769.553 553.123 769.898 554.365 769.922 555.783H765.932C765.896 555.08 765.721 554.447 765.404 553.885C765.1 553.311 764.666 552.854 764.104 552.514C763.553 552.174 762.891 552.004 762.117 552.004C761.262 552.004 760.553 552.18 759.99 552.531C759.428 552.871 758.988 553.34 758.672 553.938C758.355 554.523 758.127 555.186 757.986 555.924C757.857 556.65 757.793 557.406 757.793 558.191V558.807C757.793 559.592 757.857 560.354 757.986 561.092C758.115 561.83 758.338 562.492 758.654 563.078C758.982 563.652 759.428 564.115 759.99 564.467C760.553 564.807 761.268 564.977 762.135 564.977ZM777.445 541V568H773.191V541H777.445ZM789.258 548.98L780.979 558.156L776.443 562.797L775.336 559.211L778.764 554.975L784.143 548.98H789.258ZM785.057 568L778.887 559.07L781.559 556.1L789.961 568H785.057ZM799.98 568.352C798.574 568.352 797.303 568.123 796.166 567.666C795.041 567.197 794.08 566.547 793.283 565.715C792.498 564.883 791.895 563.904 791.473 562.779C791.051 561.654 790.84 560.441 790.84 559.141V558.438C790.84 556.949 791.057 555.602 791.49 554.395C791.924 553.188 792.527 552.156 793.301 551.301C794.074 550.434 794.988 549.771 796.043 549.314C797.098 548.857 798.24 548.629 799.471 548.629C800.83 548.629 802.02 548.857 803.039 549.314C804.059 549.771 804.902 550.416 805.57 551.248C806.25 552.068 806.754 553.047 807.082 554.184C807.422 555.32 807.592 556.574 807.592 557.945V559.756H792.896V556.715H803.408V556.381C803.385 555.619 803.232 554.904 802.951 554.236C802.682 553.568 802.266 553.029 801.703 552.619C801.141 552.209 800.391 552.004 799.453 552.004C798.75 552.004 798.123 552.156 797.572 552.461C797.033 552.754 796.582 553.182 796.219 553.744C795.855 554.307 795.574 554.986 795.375 555.783C795.188 556.568 795.094 557.453 795.094 558.438V559.141C795.094 559.973 795.205 560.746 795.428 561.461C795.662 562.164 796.002 562.779 796.447 563.307C796.893 563.834 797.432 564.25 798.064 564.555C798.697 564.848 799.418 564.994 800.227 564.994C801.246 564.994 802.154 564.789 802.951 564.379C803.748 563.969 804.439 563.389 805.025 562.639L807.258 564.801C806.848 565.398 806.314 565.973 805.658 566.523C805.002 567.062 804.199 567.502 803.25 567.842C802.312 568.182 801.223 568.352 799.98 568.352ZM815.15 552.602V568H810.914V548.98H814.957L815.15 552.602ZM820.969 548.857L820.934 552.795C820.676 552.748 820.395 552.713 820.09 552.689C819.797 552.666 819.504 552.654 819.211 552.654C818.484 552.654 817.846 552.76 817.295 552.971C816.744 553.17 816.281 553.463 815.906 553.85C815.543 554.225 815.262 554.682 815.062 555.221C814.863 555.76 814.746 556.363 814.711 557.031L813.744 557.102C813.744 555.906 813.861 554.799 814.096 553.779C814.33 552.76 814.682 551.863 815.15 551.09C815.631 550.316 816.229 549.713 816.943 549.279C817.67 548.846 818.508 548.629 819.457 548.629C819.715 548.629 819.99 548.652 820.283 548.699C820.588 548.746 820.816 548.799 820.969 548.857Z" fill="#221A15"/>
<path d="M703.699 591.694L705.511 585.604H707.22L704.649 593H703.583L703.699 591.694ZM702.312 585.604L704.157 591.722L704.246 593H703.18L700.596 585.604H702.312ZM714.73 587.189V588.816C714.73 589.596 714.652 590.261 714.497 590.812C714.347 591.359 714.128 591.804 713.841 592.146C713.554 592.487 713.21 592.738 712.809 592.897C712.412 593.057 711.968 593.137 711.476 593.137C711.084 593.137 710.719 593.087 710.382 592.986C710.05 592.886 709.749 592.729 709.48 592.515C709.211 592.3 708.981 592.025 708.789 591.688C708.603 591.346 708.457 590.938 708.352 590.464C708.252 589.99 708.202 589.441 708.202 588.816V587.189C708.202 586.406 708.279 585.745 708.434 585.207C708.589 584.665 708.81 584.225 709.097 583.888C709.384 583.546 709.726 583.298 710.122 583.143C710.523 582.988 710.97 582.91 711.462 582.91C711.859 582.91 712.223 582.96 712.556 583.061C712.893 583.156 713.194 583.309 713.458 583.519C713.727 583.728 713.955 584.002 714.142 584.339C714.333 584.672 714.479 585.075 714.579 585.549C714.68 586.018 714.73 586.565 714.73 587.189ZM713.082 589.049V586.943C713.082 586.547 713.06 586.198 713.014 585.897C712.968 585.592 712.9 585.335 712.809 585.125C712.722 584.911 712.613 584.738 712.481 584.605C712.349 584.469 712.198 584.371 712.03 584.312C711.861 584.248 711.672 584.216 711.462 584.216C711.207 584.216 710.979 584.266 710.779 584.366C710.578 584.462 710.41 584.617 710.273 584.831C710.136 585.045 710.031 585.328 709.958 585.679C709.89 586.025 709.856 586.447 709.856 586.943V589.049C709.856 589.45 709.879 589.803 709.924 590.108C709.97 590.414 710.038 590.676 710.129 590.895C710.22 591.109 710.33 591.286 710.457 591.428C710.59 591.564 710.74 591.665 710.909 591.729C711.082 591.792 711.271 591.824 711.476 591.824C711.736 591.824 711.966 591.774 712.166 591.674C712.367 591.574 712.536 591.414 712.672 591.195C712.809 590.972 712.911 590.683 712.98 590.327C713.048 589.972 713.082 589.546 713.082 589.049ZM716.464 592.18C716.464 591.924 716.55 591.71 716.723 591.537C716.897 591.359 717.131 591.271 717.428 591.271C717.728 591.271 717.963 591.359 718.132 591.537C718.305 591.71 718.391 591.924 718.391 592.18C718.391 592.435 718.305 592.649 718.132 592.822C717.963 592.995 717.728 593.082 717.428 593.082C717.131 593.082 716.897 592.995 716.723 592.822C716.55 592.649 716.464 592.435 716.464 592.18ZM726.968 591.688V593H720.296V591.872L723.536 588.338C723.892 587.937 724.172 587.59 724.377 587.299C724.582 587.007 724.726 586.745 724.808 586.513C724.894 586.276 724.938 586.046 724.938 585.822C724.938 585.508 724.878 585.232 724.76 584.995C724.646 584.754 724.477 584.564 724.254 584.428C724.031 584.286 723.76 584.216 723.441 584.216C723.071 584.216 722.762 584.296 722.511 584.455C722.26 584.615 722.071 584.836 721.944 585.118C721.816 585.396 721.752 585.715 721.752 586.075H720.105C720.105 585.496 720.237 584.968 720.501 584.489C720.765 584.006 721.148 583.623 721.65 583.341C722.151 583.054 722.755 582.91 723.461 582.91C724.126 582.91 724.692 583.022 725.156 583.245C725.621 583.468 725.974 583.785 726.216 584.195C726.462 584.605 726.585 585.091 726.585 585.651C726.585 585.961 726.535 586.269 726.435 586.574C726.334 586.88 726.191 587.185 726.004 587.49C725.822 587.791 725.605 588.094 725.355 588.399C725.104 588.7 724.828 589.006 724.528 589.315L722.374 591.688H726.968ZM728.517 592.18C728.517 591.924 728.604 591.71 728.777 591.537C728.95 591.359 729.185 591.271 729.481 591.271C729.782 591.271 730.017 591.359 730.185 591.537C730.358 591.71 730.445 591.924 730.445 592.18C730.445 592.435 730.358 592.649 730.185 592.822C730.017 592.995 729.782 593.082 729.481 593.082C729.185 593.082 728.95 592.995 728.777 592.822C728.604 592.649 728.517 592.435 728.517 592.18ZM738.837 587.189V588.816C738.837 589.596 738.759 590.261 738.604 590.812C738.454 591.359 738.235 591.804 737.948 592.146C737.661 592.487 737.317 592.738 736.916 592.897C736.52 593.057 736.075 593.137 735.583 593.137C735.191 593.137 734.826 593.087 734.489 592.986C734.157 592.886 733.856 592.729 733.587 592.515C733.318 592.3 733.088 592.025 732.896 591.688C732.71 591.346 732.564 590.938 732.459 590.464C732.359 589.99 732.309 589.441 732.309 588.816V587.189C732.309 586.406 732.386 585.745 732.541 585.207C732.696 584.665 732.917 584.225 733.204 583.888C733.491 583.546 733.833 583.298 734.229 583.143C734.631 582.988 735.077 582.91 735.569 582.91C735.966 582.91 736.33 582.96 736.663 583.061C737 583.156 737.301 583.309 737.565 583.519C737.834 583.728 738.062 584.002 738.249 584.339C738.44 584.672 738.586 585.075 738.687 585.549C738.787 586.018 738.837 586.565 738.837 587.189ZM737.189 589.049V586.943C737.189 586.547 737.167 586.198 737.121 585.897C737.076 585.592 737.007 585.335 736.916 585.125C736.829 584.911 736.72 584.738 736.588 584.605C736.456 584.469 736.305 584.371 736.137 584.312C735.968 584.248 735.779 584.216 735.569 584.216C735.314 584.216 735.086 584.266 734.886 584.366C734.685 584.462 734.517 584.617 734.38 584.831C734.243 585.045 734.138 585.328 734.065 585.679C733.997 586.025 733.963 586.447 733.963 586.943V589.049C733.963 589.45 733.986 589.803 734.031 590.108C734.077 590.414 734.145 590.676 734.236 590.895C734.327 591.109 734.437 591.286 734.564 591.428C734.697 591.564 734.847 591.665 735.016 591.729C735.189 591.792 735.378 591.824 735.583 591.824C735.843 591.824 736.073 591.774 736.273 591.674C736.474 591.574 736.643 591.414 736.779 591.195C736.916 590.972 737.019 590.683 737.087 590.327C737.155 589.972 737.189 589.546 737.189 589.049Z" fill="#52443C"/>
<rect x="637.5" y="612" width="165" height="40" rx="20" fill="#8D4F28"/>
<path d="M710.248 634.437C710.248 634.231 710.216 634.049 710.152 633.89C710.093 633.73 709.986 633.584 709.831 633.452C709.676 633.32 709.457 633.192 709.175 633.069C708.897 632.942 708.541 632.812 708.108 632.68C707.634 632.534 707.197 632.372 706.796 632.194C706.399 632.012 706.053 631.802 705.757 631.565C705.461 631.324 705.23 631.048 705.066 630.738C704.902 630.424 704.82 630.062 704.82 629.651C704.82 629.246 704.905 628.877 705.073 628.544C705.246 628.211 705.49 627.924 705.805 627.683C706.124 627.437 706.5 627.247 706.933 627.115C707.366 626.979 707.844 626.91 708.368 626.91C709.106 626.91 709.742 627.047 710.275 627.32C710.813 627.594 711.226 627.961 711.513 628.421C711.804 628.881 711.95 629.389 711.95 629.945H710.248C710.248 629.617 710.177 629.328 710.036 629.077C709.899 628.822 709.69 628.621 709.407 628.476C709.129 628.33 708.776 628.257 708.348 628.257C707.942 628.257 707.605 628.318 707.336 628.441C707.067 628.564 706.867 628.731 706.734 628.94C706.602 629.15 706.536 629.387 706.536 629.651C706.536 629.838 706.579 630.009 706.666 630.164C706.753 630.314 706.885 630.456 707.062 630.588C707.24 630.715 707.464 630.836 707.732 630.95C708.001 631.064 708.318 631.174 708.683 631.278C709.234 631.442 709.715 631.625 710.125 631.825C710.535 632.021 710.877 632.244 711.15 632.495C711.424 632.746 711.629 633.031 711.766 633.35C711.902 633.664 711.971 634.022 711.971 634.423C711.971 634.842 711.886 635.22 711.718 635.558C711.549 635.89 711.308 636.175 710.993 636.412C710.683 636.645 710.31 636.825 709.872 636.952C709.439 637.075 708.956 637.137 708.423 637.137C707.944 637.137 707.473 637.073 707.008 636.945C706.548 636.818 706.128 636.624 705.75 636.364C705.372 636.1 705.071 635.772 704.848 635.38C704.624 634.983 704.513 634.521 704.513 633.992H706.229C706.229 634.316 706.283 634.591 706.393 634.819C706.507 635.047 706.664 635.234 706.864 635.38C707.065 635.521 707.297 635.626 707.562 635.694C707.83 635.763 708.118 635.797 708.423 635.797C708.824 635.797 709.159 635.74 709.428 635.626C709.701 635.512 709.906 635.353 710.043 635.147C710.18 634.942 710.248 634.705 710.248 634.437ZM716.815 629.604V630.807H712.645V629.604H716.815ZM713.848 627.792H715.496V634.956C715.496 635.184 715.527 635.359 715.591 635.482C715.66 635.601 715.753 635.681 715.871 635.722C715.99 635.763 716.129 635.783 716.288 635.783C716.402 635.783 716.512 635.776 716.617 635.763C716.721 635.749 716.806 635.735 716.87 635.722L716.876 636.979C716.74 637.021 716.58 637.057 716.398 637.089C716.22 637.121 716.015 637.137 715.783 637.137C715.404 637.137 715.069 637.071 714.778 636.938C714.486 636.802 714.258 636.581 714.094 636.275C713.93 635.97 713.848 635.564 713.848 635.059V627.792ZM722.356 635.517V631.989C722.356 631.725 722.308 631.497 722.213 631.306C722.117 631.114 721.971 630.966 721.775 630.861C721.584 630.757 721.342 630.704 721.051 630.704C720.782 630.704 720.549 630.75 720.353 630.841C720.157 630.932 720.005 631.055 719.895 631.21C719.786 631.365 719.731 631.54 719.731 631.736H718.091C718.091 631.445 718.161 631.162 718.303 630.889C718.444 630.615 718.649 630.371 718.918 630.157C719.187 629.943 719.508 629.774 719.882 629.651C720.255 629.528 720.675 629.467 721.139 629.467C721.695 629.467 722.188 629.56 722.616 629.747C723.049 629.934 723.388 630.216 723.635 630.595C723.885 630.968 724.011 631.438 724.011 632.003V635.291C724.011 635.628 724.033 635.931 724.079 636.2C724.129 636.465 724.2 636.695 724.291 636.891V637H722.602C722.525 636.822 722.463 636.597 722.418 636.323C722.377 636.045 722.356 635.776 722.356 635.517ZM722.596 632.502L722.609 633.521H721.427C721.121 633.521 720.852 633.55 720.62 633.609C720.387 633.664 720.194 633.746 720.039 633.855C719.884 633.965 719.768 634.097 719.69 634.252C719.613 634.407 719.574 634.582 719.574 634.778C719.574 634.974 719.62 635.154 719.711 635.318C719.802 635.478 719.934 635.603 720.107 635.694C720.285 635.785 720.499 635.831 720.75 635.831C721.087 635.831 721.381 635.763 721.632 635.626C721.887 635.485 722.087 635.314 722.233 635.113C722.379 634.908 722.457 634.715 722.466 634.532L722.999 635.264C722.944 635.451 722.851 635.651 722.719 635.865C722.586 636.079 722.413 636.285 722.199 636.48C721.989 636.672 721.736 636.829 721.44 636.952C721.149 637.075 720.811 637.137 720.429 637.137C719.945 637.137 719.515 637.041 719.137 636.85C718.758 636.654 718.462 636.392 718.248 636.063C718.034 635.731 717.927 635.355 717.927 634.936C717.927 634.544 717.999 634.197 718.145 633.896C718.296 633.591 718.514 633.336 718.802 633.131C719.093 632.926 719.449 632.771 719.868 632.666C720.287 632.557 720.766 632.502 721.304 632.502H722.596ZM727.487 631.012V637H725.84V629.604H727.412L727.487 631.012ZM729.75 629.556L729.737 631.087C729.636 631.069 729.527 631.055 729.408 631.046C729.294 631.037 729.181 631.032 729.067 631.032C728.784 631.032 728.536 631.073 728.321 631.155C728.107 631.233 727.927 631.347 727.781 631.497C727.64 631.643 727.531 631.821 727.453 632.03C727.376 632.24 727.33 632.475 727.317 632.734L726.941 632.762C726.941 632.297 726.986 631.866 727.077 631.47C727.168 631.073 727.305 630.725 727.487 630.424C727.674 630.123 727.907 629.888 728.185 629.72C728.467 629.551 728.793 629.467 729.162 629.467C729.263 629.467 729.37 629.476 729.484 629.494C729.602 629.512 729.691 629.533 729.75 629.556ZM734.615 629.604V630.807H730.445V629.604H734.615ZM731.648 627.792H733.296V634.956C733.296 635.184 733.327 635.359 733.391 635.482C733.46 635.601 733.553 635.681 733.671 635.722C733.79 635.763 733.929 635.783 734.088 635.783C734.202 635.783 734.312 635.776 734.417 635.763C734.521 635.749 734.606 635.735 734.67 635.722L734.676 636.979C734.54 637.021 734.38 637.057 734.198 637.089C734.02 637.121 733.815 637.137 733.583 637.137C733.204 637.137 732.869 637.071 732.578 636.938C732.286 636.802 732.058 636.581 731.894 636.275C731.73 635.97 731.648 635.564 731.648 635.059V627.792Z" fill="white"/>
</g>
<defs>
<clipPath id="clip0_6_4542">
<rect width="1440" height="1024" fill="white"/>
</clipPath>
</defs>
</svg>
