<svg width="412" height="917" viewBox="0 0 412 917" fill="none" xmlns="http://www.w3.org/2000/svg">
<rect width="412" height="917" fill="white"/>
<rect width="412" height="841" transform="translate(0 52)" fill="#FFF8F5"/>
<rect x="128" y="328.5" width="156" height="156" rx="78" fill="#FFAE7F"/>
<path fill-rule="evenodd" clip-rule="evenodd" d="M229.401 390.9C229.401 403.823 218.924 414.3 206.001 414.3C193.077 414.3 182.601 403.823 182.601 390.9C182.601 377.977 193.077 367.5 206.001 367.5C218.924 367.5 229.401 377.977 229.401 390.9ZM221.601 390.9C221.601 399.516 214.617 406.5 206.001 406.5C197.385 406.5 190.401 399.516 190.401 390.9C190.401 382.284 197.385 375.3 206.001 375.3C214.617 375.3 221.601 382.284 221.601 390.9Z" fill="#673C22"/>
<path d="M206.001 426C180.751 426 159.237 440.931 151.042 461.849C153.038 463.831 155.141 465.707 157.342 467.465C163.444 448.26 182.588 433.8 206.001 433.8C229.414 433.8 248.558 448.26 254.66 467.465C256.861 465.707 258.964 463.831 260.96 461.849C252.765 440.931 231.251 426 206.001 426Z" fill="#673C22"/>
<path d="M122.275 520.168H126.67C126.529 521.844 126.061 523.338 125.264 524.65C124.467 525.951 123.348 526.977 121.906 527.727C120.465 528.477 118.713 528.852 116.65 528.852C115.068 528.852 113.645 528.57 112.379 528.008C111.113 527.434 110.029 526.625 109.127 525.582C108.225 524.527 107.533 523.256 107.053 521.768C106.584 520.279 106.35 518.615 106.35 516.775V514.648C106.35 512.809 106.59 511.145 107.07 509.656C107.562 508.168 108.266 506.896 109.18 505.842C110.094 504.775 111.189 503.961 112.467 503.398C113.756 502.836 115.203 502.555 116.809 502.555C118.848 502.555 120.57 502.93 121.977 503.68C123.383 504.43 124.473 505.467 125.246 506.791C126.031 508.115 126.512 509.633 126.688 511.344H122.293C122.176 510.242 121.918 509.299 121.52 508.514C121.133 507.729 120.559 507.131 119.797 506.721C119.035 506.299 118.039 506.088 116.809 506.088C115.801 506.088 114.922 506.275 114.172 506.65C113.422 507.025 112.795 507.576 112.291 508.303C111.787 509.029 111.406 509.926 111.148 510.992C110.902 512.047 110.779 513.254 110.779 514.613V516.775C110.779 518.064 110.891 519.236 111.113 520.291C111.348 521.334 111.699 522.23 112.168 522.98C112.648 523.73 113.258 524.311 113.996 524.721C114.734 525.131 115.619 525.336 116.65 525.336C117.904 525.336 118.918 525.137 119.691 524.738C120.477 524.34 121.068 523.76 121.467 522.998C121.877 522.225 122.146 521.281 122.275 520.168ZM140.979 524.686V515.615C140.979 514.936 140.855 514.35 140.609 513.857C140.363 513.365 139.988 512.984 139.484 512.715C138.992 512.445 138.371 512.311 137.621 512.311C136.93 512.311 136.332 512.428 135.828 512.662C135.324 512.896 134.932 513.213 134.65 513.611C134.369 514.01 134.229 514.461 134.229 514.965H130.01C130.01 514.215 130.191 513.488 130.555 512.785C130.918 512.082 131.445 511.455 132.137 510.904C132.828 510.354 133.654 509.92 134.615 509.604C135.576 509.287 136.654 509.129 137.85 509.129C139.279 509.129 140.545 509.369 141.646 509.85C142.76 510.33 143.633 511.057 144.266 512.029C144.91 512.99 145.232 514.197 145.232 515.65V524.105C145.232 524.973 145.291 525.752 145.408 526.443C145.537 527.123 145.719 527.715 145.953 528.219V528.5H141.611C141.412 528.043 141.254 527.463 141.137 526.76C141.031 526.045 140.979 525.354 140.979 524.686ZM141.594 516.934L141.629 519.553H138.588C137.803 519.553 137.111 519.629 136.514 519.781C135.916 519.922 135.418 520.133 135.02 520.414C134.621 520.695 134.322 521.035 134.123 521.434C133.924 521.832 133.824 522.283 133.824 522.787C133.824 523.291 133.941 523.754 134.176 524.176C134.41 524.586 134.75 524.908 135.195 525.143C135.652 525.377 136.203 525.494 136.848 525.494C137.715 525.494 138.471 525.318 139.115 524.967C139.771 524.604 140.287 524.164 140.662 523.648C141.037 523.121 141.236 522.623 141.26 522.154L142.631 524.035C142.49 524.516 142.25 525.031 141.91 525.582C141.57 526.133 141.125 526.66 140.574 527.164C140.035 527.656 139.385 528.061 138.623 528.377C137.873 528.693 137.006 528.852 136.021 528.852C134.779 528.852 133.672 528.605 132.699 528.113C131.727 527.609 130.965 526.936 130.414 526.092C129.863 525.236 129.588 524.27 129.588 523.191C129.588 522.184 129.775 521.293 130.15 520.52C130.537 519.734 131.1 519.078 131.838 518.551C132.588 518.023 133.502 517.625 134.58 517.355C135.658 517.074 136.889 516.934 138.271 516.934H141.594ZM160.332 523.35C160.332 522.928 160.227 522.547 160.016 522.207C159.805 521.855 159.4 521.539 158.803 521.258C158.217 520.977 157.35 520.719 156.201 520.484C155.193 520.262 154.268 519.998 153.424 519.693C152.592 519.377 151.877 518.996 151.279 518.551C150.682 518.105 150.219 517.578 149.891 516.969C149.562 516.359 149.398 515.656 149.398 514.859C149.398 514.086 149.568 513.354 149.908 512.662C150.248 511.971 150.734 511.361 151.367 510.834C152 510.307 152.768 509.891 153.67 509.586C154.584 509.281 155.604 509.129 156.729 509.129C158.322 509.129 159.688 509.398 160.824 509.938C161.973 510.465 162.852 511.186 163.461 512.1C164.07 513.002 164.375 514.021 164.375 515.158H160.139C160.139 514.654 160.01 514.186 159.752 513.752C159.506 513.307 159.131 512.949 158.627 512.68C158.123 512.398 157.49 512.258 156.729 512.258C156.002 512.258 155.398 512.375 154.918 512.609C154.449 512.832 154.098 513.125 153.863 513.488C153.641 513.852 153.529 514.25 153.529 514.684C153.529 515 153.588 515.287 153.705 515.545C153.834 515.791 154.045 516.02 154.338 516.23C154.631 516.43 155.029 516.617 155.533 516.793C156.049 516.969 156.693 517.139 157.467 517.303C158.92 517.607 160.168 518 161.211 518.48C162.266 518.949 163.074 519.559 163.637 520.309C164.199 521.047 164.48 521.984 164.48 523.121C164.48 523.965 164.299 524.738 163.936 525.441C163.584 526.133 163.068 526.736 162.389 527.252C161.709 527.756 160.895 528.148 159.945 528.43C159.008 528.711 157.953 528.852 156.781 528.852C155.059 528.852 153.6 528.547 152.404 527.938C151.209 527.316 150.301 526.525 149.68 525.564C149.07 524.592 148.766 523.584 148.766 522.541H152.861C152.908 523.326 153.125 523.953 153.512 524.422C153.91 524.879 154.402 525.213 154.988 525.424C155.586 525.623 156.201 525.723 156.834 525.723C157.596 525.723 158.234 525.623 158.75 525.424C159.266 525.213 159.658 524.932 159.928 524.58C160.197 524.217 160.332 523.807 160.332 523.35ZM172.373 501.5V528.5H168.154V501.5H172.373ZM171.635 518.287L170.264 518.27C170.275 516.957 170.457 515.744 170.809 514.631C171.172 513.518 171.676 512.551 172.32 511.73C172.977 510.898 173.762 510.26 174.676 509.814C175.59 509.357 176.604 509.129 177.717 509.129C178.654 509.129 179.498 509.258 180.248 509.516C181.01 509.773 181.666 510.189 182.217 510.764C182.768 511.326 183.184 512.064 183.465 512.979C183.758 513.881 183.904 514.982 183.904 516.283V528.5H179.65V516.248C179.65 515.334 179.516 514.607 179.246 514.068C178.988 513.529 178.607 513.143 178.104 512.908C177.6 512.662 176.984 512.539 176.258 512.539C175.496 512.539 174.822 512.691 174.236 512.996C173.662 513.301 173.182 513.717 172.795 514.244C172.408 514.771 172.115 515.381 171.916 516.072C171.729 516.764 171.635 517.502 171.635 518.287ZM199.145 502.906V528.5H194.768V502.906H199.145ZM207.178 502.906V506.422H186.805V502.906H207.178ZM213.119 513.102V528.5H208.883V509.48H212.926L213.119 513.102ZM218.938 509.357L218.902 513.295C218.645 513.248 218.363 513.213 218.059 513.189C217.766 513.166 217.473 513.154 217.18 513.154C216.453 513.154 215.814 513.26 215.264 513.471C214.713 513.67 214.25 513.963 213.875 514.35C213.512 514.725 213.23 515.182 213.031 515.721C212.832 516.26 212.715 516.863 212.68 517.531L211.713 517.602C211.713 516.406 211.83 515.299 212.064 514.279C212.299 513.26 212.65 512.363 213.119 511.59C213.6 510.816 214.197 510.213 214.912 509.779C215.639 509.346 216.477 509.129 217.426 509.129C217.684 509.129 217.959 509.152 218.252 509.199C218.557 509.246 218.785 509.299 218.938 509.357ZM231.682 524.686V515.615C231.682 514.936 231.559 514.35 231.312 513.857C231.066 513.365 230.691 512.984 230.188 512.715C229.695 512.445 229.074 512.311 228.324 512.311C227.633 512.311 227.035 512.428 226.531 512.662C226.027 512.896 225.635 513.213 225.354 513.611C225.072 514.01 224.932 514.461 224.932 514.965H220.713C220.713 514.215 220.895 513.488 221.258 512.785C221.621 512.082 222.148 511.455 222.84 510.904C223.531 510.354 224.357 509.92 225.318 509.604C226.279 509.287 227.357 509.129 228.553 509.129C229.982 509.129 231.248 509.369 232.35 509.85C233.463 510.33 234.336 511.057 234.969 512.029C235.613 512.99 235.936 514.197 235.936 515.65V524.105C235.936 524.973 235.994 525.752 236.111 526.443C236.24 527.123 236.422 527.715 236.656 528.219V528.5H232.314C232.115 528.043 231.957 527.463 231.84 526.76C231.734 526.045 231.682 525.354 231.682 524.686ZM232.297 516.934L232.332 519.553H229.291C228.506 519.553 227.814 519.629 227.217 519.781C226.619 519.922 226.121 520.133 225.723 520.414C225.324 520.695 225.025 521.035 224.826 521.434C224.627 521.832 224.527 522.283 224.527 522.787C224.527 523.291 224.645 523.754 224.879 524.176C225.113 524.586 225.453 524.908 225.898 525.143C226.355 525.377 226.906 525.494 227.551 525.494C228.418 525.494 229.174 525.318 229.818 524.967C230.475 524.604 230.99 524.164 231.365 523.648C231.74 523.121 231.939 522.623 231.963 522.154L233.334 524.035C233.193 524.516 232.953 525.031 232.613 525.582C232.273 526.133 231.828 526.66 231.277 527.164C230.738 527.656 230.088 528.061 229.326 528.377C228.576 528.693 227.709 528.852 226.725 528.852C225.482 528.852 224.375 528.605 223.402 528.113C222.43 527.609 221.668 526.936 221.117 526.092C220.566 525.236 220.291 524.27 220.291 523.191C220.291 522.184 220.479 521.293 220.854 520.52C221.24 519.734 221.803 519.078 222.541 518.551C223.291 518.023 224.205 517.625 225.283 517.355C226.361 517.074 227.592 516.934 228.975 516.934H232.297ZM248.135 525.477C248.826 525.477 249.447 525.342 249.998 525.072C250.561 524.791 251.012 524.404 251.352 523.912C251.703 523.42 251.896 522.852 251.932 522.207H255.922C255.898 523.438 255.535 524.557 254.832 525.564C254.129 526.572 253.197 527.375 252.037 527.973C250.877 528.559 249.594 528.852 248.188 528.852C246.734 528.852 245.469 528.605 244.391 528.113C243.312 527.609 242.416 526.918 241.701 526.039C240.986 525.16 240.447 524.146 240.084 522.998C239.732 521.85 239.557 520.619 239.557 519.307V518.691C239.557 517.379 239.732 516.148 240.084 515C240.447 513.84 240.986 512.82 241.701 511.941C242.416 511.062 243.312 510.377 244.391 509.885C245.469 509.381 246.729 509.129 248.17 509.129C249.693 509.129 251.029 509.434 252.178 510.043C253.326 510.641 254.229 511.479 254.885 512.557C255.553 513.623 255.898 514.865 255.922 516.283H251.932C251.896 515.58 251.721 514.947 251.404 514.385C251.1 513.811 250.666 513.354 250.104 513.014C249.553 512.674 248.891 512.504 248.117 512.504C247.262 512.504 246.553 512.68 245.99 513.031C245.428 513.371 244.988 513.84 244.672 514.438C244.355 515.023 244.127 515.686 243.986 516.424C243.857 517.15 243.793 517.906 243.793 518.691V519.307C243.793 520.092 243.857 520.854 243.986 521.592C244.115 522.33 244.338 522.992 244.654 523.578C244.982 524.152 245.428 524.615 245.99 524.967C246.553 525.307 247.268 525.477 248.135 525.477ZM263.445 501.5V528.5H259.191V501.5H263.445ZM275.258 509.48L266.979 518.656L262.443 523.297L261.336 519.711L264.764 515.475L270.143 509.48H275.258ZM271.057 528.5L264.887 519.57L267.559 516.6L275.961 528.5H271.057ZM285.98 528.852C284.574 528.852 283.303 528.623 282.166 528.166C281.041 527.697 280.08 527.047 279.283 526.215C278.498 525.383 277.895 524.404 277.473 523.279C277.051 522.154 276.84 520.941 276.84 519.641V518.938C276.84 517.449 277.057 516.102 277.49 514.895C277.924 513.688 278.527 512.656 279.301 511.801C280.074 510.934 280.988 510.271 282.043 509.814C283.098 509.357 284.24 509.129 285.471 509.129C286.83 509.129 288.02 509.357 289.039 509.814C290.059 510.271 290.902 510.916 291.57 511.748C292.25 512.568 292.754 513.547 293.082 514.684C293.422 515.82 293.592 517.074 293.592 518.445V520.256H278.896V517.215H289.408V516.881C289.385 516.119 289.232 515.404 288.951 514.736C288.682 514.068 288.266 513.529 287.703 513.119C287.141 512.709 286.391 512.504 285.453 512.504C284.75 512.504 284.123 512.656 283.572 512.961C283.033 513.254 282.582 513.682 282.219 514.244C281.855 514.807 281.574 515.486 281.375 516.283C281.188 517.068 281.094 517.953 281.094 518.938V519.641C281.094 520.473 281.205 521.246 281.428 521.961C281.662 522.664 282.002 523.279 282.447 523.807C282.893 524.334 283.432 524.75 284.064 525.055C284.697 525.348 285.418 525.494 286.227 525.494C287.246 525.494 288.154 525.289 288.951 524.879C289.748 524.469 290.439 523.889 291.025 523.139L293.258 525.301C292.848 525.898 292.314 526.473 291.658 527.023C291.002 527.562 290.199 528.002 289.25 528.342C288.312 528.682 287.223 528.852 285.98 528.852ZM301.15 513.102V528.5H296.914V509.48H300.957L301.15 513.102ZM306.969 509.357L306.934 513.295C306.676 513.248 306.395 513.213 306.09 513.189C305.797 513.166 305.504 513.154 305.211 513.154C304.484 513.154 303.846 513.26 303.295 513.471C302.744 513.67 302.281 513.963 301.906 514.35C301.543 514.725 301.262 515.182 301.062 515.721C300.863 516.26 300.746 516.863 300.711 517.531L299.744 517.602C299.744 516.406 299.861 515.299 300.096 514.279C300.33 513.26 300.682 512.363 301.15 511.59C301.631 510.816 302.229 510.213 302.943 509.779C303.67 509.346 304.508 509.129 305.457 509.129C305.715 509.129 305.99 509.152 306.283 509.199C306.588 509.246 306.816 509.299 306.969 509.357Z" fill="#221A15"/>
<path d="M189.699 552.194L191.511 546.104H193.22L190.649 553.5H189.583L189.699 552.194ZM188.312 546.104L190.157 552.222L190.246 553.5H189.18L186.596 546.104H188.312ZM200.73 547.689V549.316C200.73 550.096 200.652 550.761 200.497 551.312C200.347 551.859 200.128 552.304 199.841 552.646C199.554 552.987 199.21 553.238 198.809 553.397C198.413 553.557 197.968 553.637 197.476 553.637C197.084 553.637 196.719 553.587 196.382 553.486C196.05 553.386 195.749 553.229 195.48 553.015C195.211 552.8 194.981 552.525 194.789 552.188C194.603 551.846 194.457 551.438 194.352 550.964C194.252 550.49 194.202 549.941 194.202 549.316V547.689C194.202 546.906 194.279 546.245 194.434 545.707C194.589 545.165 194.81 544.725 195.097 544.388C195.384 544.046 195.726 543.798 196.122 543.643C196.524 543.488 196.97 543.41 197.462 543.41C197.859 543.41 198.223 543.46 198.556 543.561C198.893 543.656 199.194 543.809 199.458 544.019C199.727 544.228 199.955 544.502 200.142 544.839C200.333 545.172 200.479 545.575 200.579 546.049C200.68 546.518 200.73 547.065 200.73 547.689ZM199.082 549.549V547.443C199.082 547.047 199.06 546.698 199.014 546.397C198.968 546.092 198.9 545.835 198.809 545.625C198.722 545.411 198.613 545.238 198.481 545.105C198.349 544.969 198.198 544.871 198.03 544.812C197.861 544.748 197.672 544.716 197.462 544.716C197.207 544.716 196.979 544.766 196.779 544.866C196.578 544.962 196.41 545.117 196.273 545.331C196.136 545.545 196.031 545.828 195.958 546.179C195.89 546.525 195.856 546.947 195.856 547.443V549.549C195.856 549.95 195.879 550.303 195.924 550.608C195.97 550.914 196.038 551.176 196.129 551.395C196.22 551.609 196.33 551.786 196.457 551.928C196.59 552.064 196.74 552.165 196.909 552.229C197.082 552.292 197.271 552.324 197.476 552.324C197.736 552.324 197.966 552.274 198.166 552.174C198.367 552.074 198.536 551.914 198.672 551.695C198.809 551.472 198.912 551.183 198.98 550.827C199.048 550.472 199.082 550.046 199.082 549.549ZM202.464 552.68C202.464 552.424 202.55 552.21 202.723 552.037C202.897 551.859 203.131 551.771 203.428 551.771C203.728 551.771 203.963 551.859 204.132 552.037C204.305 552.21 204.391 552.424 204.391 552.68C204.391 552.935 204.305 553.149 204.132 553.322C203.963 553.495 203.728 553.582 203.428 553.582C203.131 553.582 202.897 553.495 202.723 553.322C202.55 553.149 202.464 552.935 202.464 552.68ZM212.968 552.188V553.5H206.296V552.372L209.536 548.838C209.892 548.437 210.172 548.09 210.377 547.799C210.582 547.507 210.726 547.245 210.808 547.013C210.894 546.776 210.938 546.546 210.938 546.322C210.938 546.008 210.878 545.732 210.76 545.495C210.646 545.254 210.477 545.064 210.254 544.928C210.031 544.786 209.76 544.716 209.441 544.716C209.071 544.716 208.762 544.796 208.511 544.955C208.26 545.115 208.071 545.336 207.944 545.618C207.816 545.896 207.752 546.215 207.752 546.575H206.105C206.105 545.996 206.237 545.468 206.501 544.989C206.765 544.506 207.148 544.123 207.65 543.841C208.151 543.554 208.755 543.41 209.461 543.41C210.127 543.41 210.692 543.522 211.156 543.745C211.621 543.968 211.974 544.285 212.216 544.695C212.462 545.105 212.585 545.591 212.585 546.151C212.585 546.461 212.535 546.769 212.435 547.074C212.335 547.38 212.191 547.685 212.004 547.99C211.822 548.291 211.605 548.594 211.355 548.899C211.104 549.2 210.828 549.506 210.528 549.815L208.374 552.188H212.968ZM214.517 552.68C214.517 552.424 214.604 552.21 214.777 552.037C214.95 551.859 215.185 551.771 215.481 551.771C215.782 551.771 216.017 551.859 216.185 552.037C216.358 552.21 216.445 552.424 216.445 552.68C216.445 552.935 216.358 553.149 216.185 553.322C216.017 553.495 215.782 553.582 215.481 553.582C215.185 553.582 214.95 553.495 214.777 553.322C214.604 553.149 214.517 552.935 214.517 552.68ZM224.837 547.689V549.316C224.837 550.096 224.759 550.761 224.604 551.312C224.454 551.859 224.235 552.304 223.948 552.646C223.661 552.987 223.317 553.238 222.916 553.397C222.52 553.557 222.075 553.637 221.583 553.637C221.191 553.637 220.826 553.587 220.489 553.486C220.157 553.386 219.856 553.229 219.587 553.015C219.318 552.8 219.088 552.525 218.896 552.188C218.71 551.846 218.564 551.438 218.459 550.964C218.359 550.49 218.309 549.941 218.309 549.316V547.689C218.309 546.906 218.386 546.245 218.541 545.707C218.696 545.165 218.917 544.725 219.204 544.388C219.491 544.046 219.833 543.798 220.229 543.643C220.631 543.488 221.077 543.41 221.569 543.41C221.966 543.41 222.33 543.46 222.663 543.561C223 543.656 223.301 543.809 223.565 544.019C223.834 544.228 224.062 544.502 224.249 544.839C224.44 545.172 224.586 545.575 224.687 546.049C224.787 546.518 224.837 547.065 224.837 547.689ZM223.189 549.549V547.443C223.189 547.047 223.167 546.698 223.121 546.397C223.076 546.092 223.007 545.835 222.916 545.625C222.829 545.411 222.72 545.238 222.588 545.105C222.456 544.969 222.305 544.871 222.137 544.812C221.968 544.748 221.779 544.716 221.569 544.716C221.314 544.716 221.086 544.766 220.886 544.866C220.685 544.962 220.517 545.117 220.38 545.331C220.243 545.545 220.138 545.828 220.065 546.179C219.997 546.525 219.963 546.947 219.963 547.443V549.549C219.963 549.95 219.986 550.303 220.031 550.608C220.077 550.914 220.145 551.176 220.236 551.395C220.327 551.609 220.437 551.786 220.564 551.928C220.697 552.064 220.847 552.165 221.016 552.229C221.189 552.292 221.378 552.324 221.583 552.324C221.843 552.324 222.073 552.274 222.273 552.174C222.474 552.074 222.643 551.914 222.779 551.695C222.916 551.472 223.019 551.183 223.087 550.827C223.155 550.472 223.189 550.046 223.189 549.549Z" fill="#52443C"/>
<g clip-path="url(#clip0_6_4324)">
<rect x="123.5" y="572.5" width="165" height="40" rx="20" fill="#8D4F28"/>
<path d="M196.248 594.937C196.248 594.731 196.216 594.549 196.152 594.39C196.093 594.23 195.986 594.084 195.831 593.952C195.676 593.82 195.457 593.692 195.175 593.569C194.897 593.442 194.541 593.312 194.108 593.18C193.634 593.034 193.197 592.872 192.796 592.694C192.399 592.512 192.053 592.302 191.757 592.065C191.461 591.824 191.23 591.548 191.066 591.238C190.902 590.924 190.82 590.562 190.82 590.151C190.82 589.746 190.905 589.377 191.073 589.044C191.246 588.711 191.49 588.424 191.805 588.183C192.124 587.937 192.5 587.747 192.933 587.615C193.366 587.479 193.844 587.41 194.368 587.41C195.106 587.41 195.742 587.547 196.275 587.82C196.813 588.094 197.226 588.461 197.513 588.921C197.804 589.381 197.95 589.889 197.95 590.445H196.248C196.248 590.117 196.177 589.828 196.036 589.577C195.899 589.322 195.69 589.121 195.407 588.976C195.129 588.83 194.776 588.757 194.348 588.757C193.942 588.757 193.605 588.818 193.336 588.941C193.067 589.064 192.867 589.231 192.734 589.44C192.602 589.65 192.536 589.887 192.536 590.151C192.536 590.338 192.579 590.509 192.666 590.664C192.753 590.814 192.885 590.956 193.062 591.088C193.24 591.215 193.464 591.336 193.732 591.45C194.001 591.564 194.318 591.674 194.683 591.778C195.234 591.942 195.715 592.125 196.125 592.325C196.535 592.521 196.877 592.744 197.15 592.995C197.424 593.246 197.629 593.531 197.766 593.85C197.902 594.164 197.971 594.522 197.971 594.923C197.971 595.342 197.886 595.72 197.718 596.058C197.549 596.39 197.308 596.675 196.993 596.912C196.683 597.145 196.31 597.325 195.872 597.452C195.439 597.575 194.956 597.637 194.423 597.637C193.944 597.637 193.473 597.573 193.008 597.445C192.548 597.318 192.128 597.124 191.75 596.864C191.372 596.6 191.071 596.272 190.848 595.88C190.624 595.483 190.513 595.021 190.513 594.492H192.229C192.229 594.816 192.283 595.091 192.393 595.319C192.507 595.547 192.664 595.734 192.864 595.88C193.065 596.021 193.297 596.126 193.562 596.194C193.83 596.263 194.118 596.297 194.423 596.297C194.824 596.297 195.159 596.24 195.428 596.126C195.701 596.012 195.906 595.853 196.043 595.647C196.18 595.442 196.248 595.205 196.248 594.937ZM202.815 590.104V591.307H198.645V590.104H202.815ZM199.848 588.292H201.496V595.456C201.496 595.684 201.527 595.859 201.591 595.982C201.66 596.101 201.753 596.181 201.871 596.222C201.99 596.263 202.129 596.283 202.288 596.283C202.402 596.283 202.512 596.276 202.617 596.263C202.721 596.249 202.806 596.235 202.87 596.222L202.876 597.479C202.74 597.521 202.58 597.557 202.398 597.589C202.22 597.621 202.015 597.637 201.783 597.637C201.404 597.637 201.069 597.571 200.778 597.438C200.486 597.302 200.258 597.081 200.094 596.775C199.93 596.47 199.848 596.064 199.848 595.559V588.292ZM208.356 596.017V592.489C208.356 592.225 208.308 591.997 208.213 591.806C208.117 591.614 207.971 591.466 207.775 591.361C207.584 591.257 207.342 591.204 207.051 591.204C206.782 591.204 206.549 591.25 206.353 591.341C206.157 591.432 206.005 591.555 205.895 591.71C205.786 591.865 205.731 592.04 205.731 592.236H204.091C204.091 591.945 204.161 591.662 204.303 591.389C204.444 591.115 204.649 590.871 204.918 590.657C205.187 590.443 205.508 590.274 205.882 590.151C206.255 590.028 206.675 589.967 207.139 589.967C207.695 589.967 208.188 590.06 208.616 590.247C209.049 590.434 209.388 590.716 209.635 591.095C209.885 591.468 210.011 591.938 210.011 592.503V595.791C210.011 596.128 210.033 596.431 210.079 596.7C210.129 596.965 210.2 597.195 210.291 597.391V597.5H208.602C208.525 597.322 208.463 597.097 208.418 596.823C208.377 596.545 208.356 596.276 208.356 596.017ZM208.596 593.002L208.609 594.021H207.427C207.121 594.021 206.852 594.05 206.62 594.109C206.387 594.164 206.194 594.246 206.039 594.355C205.884 594.465 205.768 594.597 205.69 594.752C205.613 594.907 205.574 595.082 205.574 595.278C205.574 595.474 205.62 595.654 205.711 595.818C205.802 595.978 205.934 596.103 206.107 596.194C206.285 596.285 206.499 596.331 206.75 596.331C207.087 596.331 207.381 596.263 207.632 596.126C207.887 595.985 208.087 595.814 208.233 595.613C208.379 595.408 208.457 595.215 208.466 595.032L208.999 595.764C208.944 595.951 208.851 596.151 208.719 596.365C208.586 596.579 208.413 596.785 208.199 596.98C207.989 597.172 207.736 597.329 207.44 597.452C207.149 597.575 206.811 597.637 206.429 597.637C205.945 597.637 205.515 597.541 205.137 597.35C204.758 597.154 204.462 596.892 204.248 596.563C204.034 596.231 203.927 595.855 203.927 595.436C203.927 595.044 203.999 594.697 204.145 594.396C204.296 594.091 204.514 593.836 204.802 593.631C205.093 593.426 205.449 593.271 205.868 593.166C206.287 593.057 206.766 593.002 207.304 593.002H208.596ZM213.487 591.512V597.5H211.84V590.104H213.412L213.487 591.512ZM215.75 590.056L215.737 591.587C215.636 591.569 215.527 591.555 215.408 591.546C215.294 591.537 215.181 591.532 215.067 591.532C214.784 591.532 214.536 591.573 214.321 591.655C214.107 591.733 213.927 591.847 213.781 591.997C213.64 592.143 213.531 592.321 213.453 592.53C213.376 592.74 213.33 592.975 213.317 593.234L212.941 593.262C212.941 592.797 212.986 592.366 213.077 591.97C213.168 591.573 213.305 591.225 213.487 590.924C213.674 590.623 213.907 590.388 214.185 590.22C214.467 590.051 214.793 589.967 215.162 589.967C215.263 589.967 215.37 589.976 215.484 589.994C215.602 590.012 215.691 590.033 215.75 590.056ZM220.615 590.104V591.307H216.445V590.104H220.615ZM217.648 588.292H219.296V595.456C219.296 595.684 219.327 595.859 219.391 595.982C219.46 596.101 219.553 596.181 219.671 596.222C219.79 596.263 219.929 596.283 220.088 596.283C220.202 596.283 220.312 596.276 220.417 596.263C220.521 596.249 220.606 596.235 220.67 596.222L220.676 597.479C220.54 597.521 220.38 597.557 220.198 597.589C220.02 597.621 219.815 597.637 219.583 597.637C219.204 597.637 218.869 597.571 218.578 597.438C218.286 597.302 218.058 597.081 217.894 596.775C217.73 596.47 217.648 596.064 217.648 595.559V588.292Z" fill="white"/>
</g>
<defs>
<clipPath id="clip0_6_4324">
<rect x="123.5" y="572.5" width="165" height="40" rx="20" fill="white"/>
</clipPath>
</defs>
</svg>
